# This file uses centimeters as units for non-parametric coordinates.

mtllib Rocks.mtl
g default
v 0.030403 0.940290 -1.548998
v 0.754010 1.786334 -0.444981
v -0.245990 1.889880 -0.444981
v -0.864024 1.001160 -0.444981
v -0.245990 0.409952 -0.444981
v 0.754010 0.734872 -0.444981
v 0.924830 1.260603 0.449446
v 0.306796 1.851026 0.449446
v -0.693204 1.786334 0.449446
v -0.693204 0.734872 0.449446
v 0.306797 0.409952 0.449446
v 0.030403 1.260603 1.002233
v 0.333199 1.773778 -0.296021
v 0.579839 2.062396 0.221764
v 0.238990 2.097719 0.221764
v 0.028334 1.794544 0.221764
v 0.238990 1.592860 0.221764
v 0.579839 1.703702 0.221764
v 0.638063 1.883049 0.641251
v 0.427407 2.084465 0.641251
v 0.086558 2.062396 0.641251
v 0.086558 1.703702 0.641251
v 0.427407 1.592860 0.641251
v 0.333199 1.883049 0.900509
v 1.073203 0.954423 -1.551231
v 2.235679 2.324466 -0.567254
v 1.194105 2.313252 -0.462476
v 0.178775 1.015293 -0.825120
v 0.796809 0.424085 -0.447214
v 3.480807 0.749004 -0.447214
v 1.967630 1.274736 0.447214
v 1.349596 1.865159 0.875750
v 0.349596 1.800467 0.447214
v 0.349596 0.749004 0.447214
v 1.349596 0.424085 0.447214
v 1.073203 1.274736 1.000000
v 1.297396 0.759256 -1.153536
v 2.387266 2.723245 0.643281
v 1.194105 2.553176 0.628018
v -0.002811 1.125583 -0.311432
v 0.796809 0.664009 0.643281
v 3.480807 0.988929 0.643281
v 1.967630 1.514660 1.537708
v 1.349596 2.105083 1.966244
v 0.224604 2.489552 1.212108
v -0.537583 0.533731 1.335697
v 0.733161 0.319095 2.839671
v 1.112085 1.354747 2.517775
v 2.340747 0.913295 -1.628187
v 3.328667 2.199304 -1.020629
v 2.392092 2.562323 -0.547103
v 1.376762 1.264364 -0.909746
v 1.994796 0.673156 -0.531840
v 4.678793 0.998075 -0.531840
v 3.206136 0.954011 0.755963
v 2.547582 2.114230 0.791123
v 1.547582 2.049537 0.362587
v 1.547582 0.998075 0.362587
v 2.547583 0.673156 0.362587
v 2.271189 1.523806 0.915374
v 2.407799 0.787233 0.761948
v 2.654439 1.075851 1.279734
v 2.313590 1.111174 1.279734
v 2.102934 0.807998 1.279734
v 2.313590 0.606315 1.279734
v 2.654439 0.717157 1.279734
v 2.712663 0.896504 1.699221
v 2.502007 1.097920 1.699221
v 2.161158 1.075851 1.699221
v 2.161158 0.717157 1.699221
v 2.502007 0.606315 1.699221
v 2.407799 0.896504 1.958478
vt 0.270668 0.396015
vt 0.209724 0.428263
vt 0.195391 0.349139
vt 0.315685 0.523470
vt 0.148426 0.372257
vt 0.247139 0.308515
vt 0.409311 0.334319
vt 0.298571 0.239648
vt 0.094157 0.411416
vt 0.334929 0.358328
vt 0.125479 0.287675
vt 0.158580 0.470952
vt 0.406849 0.717868
vt 0.227260 0.725274
vt 0.159744 0.650660
vt 0.146569 0.763451
vt 0.188641 0.810263
vt 0.090050 0.811213
vt 0.133528 0.860233
vt 0.293838 0.908785
vt 0.114272 0.950884
vt 0.186816 0.890092
vt 0.347968 0.964612
vt 0.272608 0.813865
vt 0.777926 0.748745
vt 0.954074 0.415135
vt 0.646167 0.778086
vt 0.889293 0.503152
vt 0.912668 0.313039
vt 0.678654 0.673065
vt 0.989673 0.070305
vt 0.917353 0.159194
vt 0.855581 0.064769
vt 0.803912 0.164825
vt 0.814802 0.245306
vt 0.076378 0.137548
vt 0.101275 0.233988
vt 0.009667 0.225793
vt 0.193620 0.150871
vt 0.237719 0.188695
vt 0.168864 0.216022
vt 0.211158 0.111952
vt 0.299096 0.130947
vt 0.119448 0.177078
vt 0.151177 0.111620
vt 0.423861 0.071926
vt 0.487305 0.133292
vt 0.450754 0.148127
vt 0.487268 0.193779
vt 0.312262 0.192690
vt 0.457567 0.223879
vt 0.359560 0.228548
vt 0.380216 0.137318
vt 0.386521 0.186974
vt 0.347491 0.178667
vt 0.413330 0.146053
vt 0.336383 0.119949
vt 0.008868 0.753926
vt 0.841190 0.626337
vt 0.584736 0.439605
vt 0.421259 0.690464
vt 0.645238 0.605152
vt 0.568563 0.727420
vt 0.600771 0.136956
vt 0.633931 0.248359
vt 0.693879 0.129032
vt 0.704396 0.007564
vt 0.817741 0.004555
vt 0.795889 0.099988
vt 0.039630 0.031359
vt 0.029996 0.287249
vt 0.206580 0.025515
vt 0.525885 0.650971
vt 0.115424 0.263737
vt 0.753083 0.119757
vt 0.992658 0.192089
vt 0.536818 0.159779
vt 0.601988 0.013684
vt 0.234039 0.078939
vt 0.827012 0.811469
vt 0.683258 0.861418
vt 0.536835 0.782446
vt 0.844394 0.398890
vt 0.535692 0.217272
vt 0.524557 0.172323
vt 0.513970 0.100950
vt 0.017759 0.414942
vt 0.095359 0.538822
vt 0.244774 0.558310
vn 0.079263 0.765478 -0.638561
vn 0.079263 0.765478 -0.638561
vn 0.079263 0.765478 -0.638561
vn -0.673655 0.468473 -0.571596
vn -0.673655 0.468474 -0.571596
vn -0.673655 0.468474 -0.571596
vn -0.613244 -0.641069 -0.461478
vn -0.613244 -0.641070 -0.461478
vn -0.613244 -0.641069 -0.461478
vn 0.288912 -0.889181 -0.354807
vn 0.288912 -0.889181 -0.354807
vn 0.288912 -0.889181 -0.354807
vn 0.836362 -0.000000 -0.548177
vn 0.836362 -0.000000 -0.548177
vn 0.836362 -0.000000 -0.548177
vn 0.102974 0.994474 -0.020442
vn 0.102974 0.994474 -0.020442
vn 0.102974 0.994474 -0.020442
vn -0.776248 0.539819 -0.325630
vn -0.776248 0.539819 -0.325630
vn -0.776248 0.539819 -0.325630
vn -0.688875 -0.720132 -0.082834
vn -0.688875 -0.720132 -0.082834
vn -0.688875 -0.720132 -0.082834
vn 0.303531 -0.934172 -0.187593
vn 0.303531 -0.934172 -0.187593
vn 0.303531 -0.934172 -0.187593
vn 0.982247 -0.000000 -0.187593
vn 0.982247 -0.000000 -0.187593
vn 0.982247 -0.000000 -0.187593
vn 0.662886 0.693886 0.281255
vn 0.662886 0.693886 0.281255
vn 0.662886 0.693886 0.281255
vn -0.064335 0.994474 0.082961
vn -0.064335 0.994474 0.082961
vn -0.064335 0.994474 0.082961
vn -0.982247 -0.000000 0.187593
vn -0.982247 -0.000000 0.187593
vn -0.982247 -0.000000 0.187593
vn -0.303531 -0.934172 0.187593
vn -0.303531 -0.934172 0.187593
vn -0.303531 -0.934172 0.187593
vn 0.794654 -0.577350 0.187592
vn 0.794654 -0.577350 0.187592
vn 0.794655 -0.577350 0.187592
vn 0.460592 0.482132 0.745254
vn 0.460592 0.482132 0.745254
vn 0.460592 0.482132 0.745254
vn -0.044889 0.693885 0.718685
vn -0.044889 0.693885 0.718685
vn -0.044889 0.693885 0.718685
vn -0.607062 -0.000000 0.794654
vn -0.607062 -0.000000 0.794654
vn -0.607062 -0.000000 0.794654
vn -0.187592 -0.577350 0.794655
vn -0.187592 -0.577350 0.794654
vn -0.187592 -0.577350 0.794655
vn 0.491123 -0.356822 0.794655
vn 0.491123 -0.356822 0.794655
vn 0.491123 -0.356822 0.794655
vn 0.088254 0.851592 -0.516723
vn 0.088254 0.851592 -0.516723
vn 0.088254 0.851592 -0.516723
vn -0.732635 0.509058 -0.451781
vn -0.732635 0.509058 -0.451781
vn -0.732635 0.509058 -0.451781
vn -0.646839 -0.675616 -0.353755
vn -0.646839 -0.675616 -0.353755
vn -0.646839 -0.675616 -0.353755
vn 0.298107 -0.916702 -0.266064
vn 0.298107 -0.916702 -0.266064
vn 0.298107 -0.916702 -0.266064
vn 0.902809 0.000000 -0.430042
vn 0.902809 0.000000 -0.430042
vn 0.902809 0.000000 -0.430042
vn 0.103071 0.994563 -0.014870
vn 0.103071 0.994563 -0.014870
vn 0.103071 0.994563 -0.014870
vn -0.796633 0.553526 -0.242868
vn -0.796633 0.553526 -0.242868
vn -0.796633 0.553526 -0.242868
vn -0.690297 -0.721007 -0.060324
vn -0.690296 -0.721007 -0.060324
vn -0.690296 -0.721007 -0.060324
vn 0.306313 -0.941936 -0.137583
vn 0.306313 -0.941936 -0.137583
vn 0.306313 -0.941936 -0.137583
vn 0.990505 0.000000 -0.137480
vn 0.990505 0.000000 -0.137480
vn 0.990505 0.000000 -0.137480
vn 0.675900 0.706910 0.208417
vn 0.675900 0.706910 0.208417
vn 0.675900 0.706910 0.208417
vn -0.064494 0.996086 0.060441
vn -0.064494 0.996086 0.060441
vn -0.064494 0.996086 0.060441
vn -0.990505 -0.000000 0.137480
vn -0.990505 -0.000000 0.137480
vn -0.990505 -0.000000 0.137480
vn -0.306313 -0.941936 0.137583
vn -0.306313 -0.941936 0.137583
vn -0.306313 -0.941936 0.137583
vn 0.801565 -0.581878 0.137520
vn 0.801565 -0.581878 0.137520
vn 0.801565 -0.581878 0.137520
vn 0.536315 0.560921 0.630661
vn 0.536315 0.560921 0.630661
vn 0.536315 0.560921 0.630661
vn -0.051645 0.797642 0.600917
vn -0.051645 0.797642 0.600917
vn -0.051645 0.797642 0.600917
vn -0.724516 -0.000000 0.689258
vn -0.724516 -0.000000 0.689258
vn -0.724516 -0.000000 0.689258
vn -0.223978 -0.688749 0.689535
vn -0.223978 -0.688749 0.689535
vn -0.223978 -0.688749 0.689535
vn 0.586236 -0.425565 0.689364
vn 0.586236 -0.425565 0.689364
vn 0.586236 -0.425565 0.689364
vn -0.084609 0.627619 -0.773909
vn -0.084609 0.627619 -0.773909
vn -0.084609 0.627619 -0.773909
vn -0.494148 0.569964 -0.656475
vn -0.494148 0.569964 -0.656475
vn -0.494148 0.569964 -0.656475
vn -0.438304 -0.762447 -0.475988
vn -0.438304 -0.762447 -0.475988
vn -0.438304 -0.762447 -0.475988
vn 0.109726 -0.906394 -0.407935
vn 0.109726 -0.906394 -0.407935
vn 0.109726 -0.906394 -0.407935
vn 0.420455 0.266207 -0.867382
vn 0.420455 0.266207 -0.867382
vn 0.420455 0.266207 -0.867382
vn 0.021492 0.948784 0.315194
vn 0.021492 0.948784 0.315194
vn 0.021492 0.948784 0.315194
vn -0.709393 0.638382 -0.298713
vn -0.709393 0.638382 -0.298713
vn -0.709393 0.638382 -0.298713
vn -0.668655 -0.740704 -0.065251
vn -0.668655 -0.740704 -0.065251
vn -0.668655 -0.740704 -0.065251
vn 0.119851 -0.990025 -0.074072
vn 0.119851 -0.990025 -0.074072
vn 0.119851 -0.990025 -0.074072
vn 0.563091 0.495422 0.661426
vn 0.563091 0.495422 0.661427
vn 0.563091 0.495422 0.661426
vn 0.739121 0.360893 0.568733
vn 0.739121 0.360892 0.568733
vn 0.739121 0.360893 0.568733
vn -0.201878 0.921428 0.331989
vn -0.201878 0.921428 0.331989
vn -0.201878 0.921428 0.331989
vn -0.991107 -0.000000 0.133064
vn -0.991107 -0.000000 0.133064
vn -0.991108 -0.000000 0.133064
vn -0.303531 -0.934172 0.187592
vn -0.303531 -0.934172 0.187592
vn -0.303531 -0.934173 0.187592
vn 0.407660 -0.296183 0.863764
vn 0.407660 -0.296183 0.863764
vn 0.407660 -0.296183 0.863765
vn 0.524552 -0.066945 0.848743
vn 0.524552 -0.066945 0.848743
vn 0.524552 -0.066945 0.848742
vn -0.387076 0.359852 0.848928
vn -0.387076 0.359852 0.848928
vn -0.387076 0.359852 0.848928
vn -0.607062 0.000000 0.794655
vn -0.607062 0.000000 0.794655
vn -0.607062 0.000000 0.794655
vn -0.187592 -0.577350 0.794654
vn -0.187592 -0.577350 0.794654
vn -0.187592 -0.577350 0.794654
vn 0.491123 -0.356822 0.794654
vn 0.491123 -0.356822 0.794654
vn 0.491123 -0.356822 0.794654
vn -0.090579 0.699130 -0.709234
vn -0.090579 0.699130 -0.709234
vn -0.090579 0.699130 -0.709234
vn -0.259040 0.673055 -0.692745
vn -0.259040 0.673055 -0.692745
vn -0.259040 0.673055 -0.692745
vn -0.355868 -0.922734 -0.148056
vn -0.355867 -0.922734 -0.148056
vn -0.355867 -0.922734 -0.148056
vn 0.120159 -0.992570 -0.019139
vn 0.120159 -0.992570 -0.019139
vn 0.120159 -0.992570 -0.019139
vn 0.570123 0.359481 -0.738737
vn 0.570123 0.359481 -0.738737
vn 0.570123 0.359481 -0.738737
vn -0.137384 0.934346 0.328820
vn -0.137384 0.934346 0.328820
vn -0.137384 0.934346 0.328820
vn -0.395663 0.712812 -0.579095
vn -0.395663 0.712812 -0.579094
vn -0.395663 0.712812 -0.579095
vn -0.098894 -0.925827 -0.364780
vn -0.098894 -0.925827 -0.364780
vn -0.098894 -0.925827 -0.364780
vn 0.118809 -0.981418 -0.150676
vn 0.118809 -0.981418 -0.150676
vn 0.118809 -0.981418 -0.150676
vn 0.564059 0.355657 0.745215
vn 0.564059 0.355657 0.745215
vn 0.564059 0.355657 0.745215
vn 0.701613 0.250161 0.667202
vn 0.701613 0.250161 0.667202
vn 0.701613 0.250161 0.667202
vn 0.120267 0.945494 0.302616
vn 0.120267 0.945494 0.302616
vn 0.120267 0.945494 0.302616
vn -0.921200 0.347995 -0.174042
vn -0.921200 0.347995 -0.174042
vn -0.921200 0.347995 -0.174042
vn 0.016192 -0.987835 -0.154657
vn 0.016192 -0.987835 -0.154657
vn 0.016192 -0.987835 -0.154657
vn 0.558305 0.275664 0.782499
vn 0.558305 0.275664 0.782499
vn 0.558305 0.275664 0.782499
vn 0.705806 0.260740 0.658675
vn 0.705806 0.260740 0.658675
vn 0.705806 0.260740 0.658675
vn -0.276316 0.624453 0.730553
vn -0.276316 0.624453 0.730553
vn -0.276316 0.624453 0.730553
vn -0.649459 0.297320 0.699860
vn -0.649459 0.297320 0.699860
vn -0.649459 0.297320 0.699860
vn -0.657406 0.432355 0.617160
vn -0.657406 0.432355 0.617160
vn -0.657406 0.432355 0.617160
vn 0.757262 -0.075428 0.648741
vn 0.757262 -0.075428 0.648741
vn 0.757262 -0.075428 0.648741
vn -0.202770 0.541288 -0.816022
vn -0.202770 0.541288 -0.816022
vn -0.202770 0.541288 -0.816022
vn -0.383981 0.514572 -0.766664
vn -0.383981 0.514572 -0.766664
vn -0.383981 0.514572 -0.766664
vn -0.534239 -0.774703 -0.338266
vn -0.534239 -0.774703 -0.338266
vn -0.534239 -0.774703 -0.338266
vn 0.118290 -0.977131 -0.176700
vn 0.118290 -0.977131 -0.176700
vn 0.118290 -0.977131 -0.176700
vn 0.419153 0.104108 -0.901927
vn 0.419153 0.104108 -0.901927
vn 0.419153 0.104108 -0.901927
vn 0.452438 0.860155 0.235445
vn 0.452438 0.860155 0.235445
vn 0.452438 0.860155 0.235445
vn -0.709393 0.638382 -0.298713
vn -0.709393 0.638382 -0.298713
vn -0.709393 0.638382 -0.298713
vn -0.668655 -0.740704 -0.065251
vn -0.668655 -0.740704 -0.065251
vn -0.668655 -0.740704 -0.065251
vn 0.119851 -0.990025 -0.074072
vn 0.119851 -0.990025 -0.074072
vn 0.119851 -0.990025 -0.074072
vn 0.445680 0.718307 0.534232
vn 0.445680 0.718307 0.534232
vn 0.445680 0.718307 0.534232
vn 0.812281 0.449807 0.371313
vn 0.812281 0.449807 0.371313
vn 0.812281 0.449807 0.371313
vn -0.201878 0.921428 0.331988
vn -0.201878 0.921428 0.331988
vn -0.201878 0.921428 0.331988
vn -0.991107 0.000000 0.133064
vn -0.991107 0.000000 0.133064
vn -0.991108 0.000000 0.133064
vn -0.303531 -0.934172 0.187593
vn -0.303531 -0.934172 0.187593
vn -0.303531 -0.934172 0.187593
vn 0.248357 -0.935314 0.252003
vn 0.248357 -0.935315 0.252003
vn 0.248357 -0.935315 0.252003
vn 0.225303 0.098511 0.969296
vn 0.225303 0.098511 0.969296
vn 0.225303 0.098511 0.969296
vn -0.387076 0.359852 0.848928
vn -0.387076 0.359852 0.848928
vn -0.387076 0.359852 0.848928
vn -0.607062 0.000000 0.794655
vn -0.607062 0.000000 0.794655
vn -0.607062 0.000000 0.794655
vn -0.187592 -0.577350 0.794655
vn -0.187592 -0.577350 0.794655
vn -0.187592 -0.577350 0.794654
vn -0.220374 -0.580834 0.783624
vn -0.220374 -0.580834 0.783624
vn -0.220374 -0.580834 0.783624
vn 0.088254 0.851592 -0.516723
vn 0.088254 0.851592 -0.516723
vn 0.088254 0.851592 -0.516723
vn -0.732635 0.509058 -0.451781
vn -0.732635 0.509058 -0.451781
vn -0.732635 0.509058 -0.451781
vn -0.646839 -0.675616 -0.353755
vn -0.646839 -0.675616 -0.353755
vn -0.646839 -0.675616 -0.353755
vn 0.298107 -0.916702 -0.266064
vn 0.298107 -0.916702 -0.266064
vn 0.298107 -0.916702 -0.266064
vn 0.902809 0.000000 -0.430042
vn 0.902809 0.000000 -0.430042
vn 0.902809 0.000000 -0.430042
vn 0.103071 0.994563 -0.014870
vn 0.103071 0.994563 -0.014870
vn 0.103071 0.994563 -0.014870
vn -0.796633 0.553526 -0.242868
vn -0.796633 0.553526 -0.242868
vn -0.796633 0.553526 -0.242868
vn -0.690297 -0.721007 -0.060324
vn -0.690297 -0.721007 -0.060324
vn -0.690297 -0.721007 -0.060324
vn 0.306312 -0.941936 -0.137583
vn 0.306312 -0.941936 -0.137583
vn 0.306312 -0.941936 -0.137583
vn 0.990505 0.000000 -0.137480
vn 0.990505 0.000000 -0.137480
vn 0.990505 0.000000 -0.137480
vn 0.675900 0.706910 0.208417
vn 0.675900 0.706910 0.208417
vn 0.675900 0.706910 0.208417
vn -0.064494 0.996086 0.060441
vn -0.064494 0.996086 0.060441
vn -0.064494 0.996086 0.060441
vn -0.990505 0.000000 0.137480
vn -0.990505 0.000000 0.137480
vn -0.990505 0.000000 0.137480
vn -0.306312 -0.941936 0.137583
vn -0.306312 -0.941936 0.137583
vn -0.306313 -0.941936 0.137583
vn 0.801565 -0.581878 0.137519
vn 0.801565 -0.581878 0.137519
vn 0.801565 -0.581878 0.137519
vn 0.536316 0.560920 0.630662
vn 0.536316 0.560920 0.630662
vn 0.536316 0.560920 0.630662
vn -0.051645 0.797641 0.600917
vn -0.051645 0.797641 0.600917
vn -0.051645 0.797641 0.600917
vn -0.724516 -0.000001 0.689258
vn -0.724516 -0.000001 0.689258
vn -0.724516 -0.000001 0.689258
vn -0.223978 -0.688749 0.689535
vn -0.223978 -0.688749 0.689535
vn -0.223978 -0.688749 0.689535
vn 0.586236 -0.425564 0.689364
vn 0.586236 -0.425564 0.689364
vn 0.586236 -0.425564 0.689364
s off
g pPlatonic2
usemtl lambert2SG
f 1/4/1 3/12/2 2/2/3
f 1/4/4 4/88/5 3/12/6
f 1/4/7 5/10/8 4/7/9
f 1/4/10 6/1/11 5/10/12
f 1/4/13 2/2/14 6/1/15
f 2/2/16 3/12/17 8/5/18
f 3/12/19 4/88/20 9/9/21
f 4/7/22 5/10/23 10/8/24
f 5/10/25 6/1/26 11/6/27
f 6/1/28 2/2/29 7/3/30
f 2/2/31 8/5/32 7/3/33
f 3/12/34 9/9/35 8/5/36
f 4/88/37 10/87/38 9/9/39
f 5/10/40 11/6/41 10/8/42
f 6/1/43 7/3/44 11/6/45
f 7/3/46 8/5/47 12/11/48
f 8/5/49 9/9/50 12/11/51
f 9/9/52 10/87/53 12/11/54
f 10/8/55 11/6/56 12/11/57
f 11/6/58 7/3/59 12/11/60
f 13/13/61 15/24/62 14/14/63
f 13/13/64 16/20/65 15/24/66
f 13/13/67 17/23/68 16/20/69
f 13/13/70 18/15/71 17/89/72
f 13/13/73 14/14/74 18/15/75
f 14/14/76 15/24/77 20/17/78
f 15/24/79 16/20/80 21/22/81
f 16/20/82 17/23/83 22/21/84
f 17/58/85 18/15/86 23/18/87
f 18/15/88 14/14/89 19/16/90
f 14/14/91 20/17/92 19/16/93
f 15/24/94 21/22/95 20/17/96
f 16/20/97 22/21/98 21/22/99
f 17/58/100 23/18/101 22/21/102
f 18/15/103 19/16/104 23/18/105
f 19/16/106 20/17/107 24/19/108
f 20/17/109 21/22/110 24/19/111
f 21/22/112 22/21/113 24/19/114
f 22/21/115 23/18/116 24/19/117
f 23/18/118 19/16/119 24/19/120
f 25/59/121 27/30/122 26/62/123
f 25/59/124 28/25/125 27/30/126
f 25/59/127 29/80/128 28/25/129
f 25/59/130 30/60/131 29/28/132
f 25/59/133 26/62/134 30/60/135
f 26/62/136 27/30/137 32/63/138
f 27/30/139 28/25/140 33/27/141
f 28/25/142 29/80/143 34/81/144
f 29/28/145 30/60/146 35/83/147
f 30/60/148 26/62/149 31/73/150
f 26/62/151 32/63/152 31/73/153
f 27/30/154 33/27/155 32/63/156
f 28/25/157 34/81/158 33/27/159
f 29/28/160 35/83/161 34/26/162
f 30/60/163 31/73/164 35/61/165
f 31/73/166 32/63/167 36/82/168
f 32/63/169 33/27/170 36/82/171
f 33/27/172 34/81/173 36/82/174
f 34/26/175 35/83/176 36/29/177
f 35/61/178 31/73/179 36/82/180
f 37/64/181 39/78/182 38/67/183
f 37/64/184 40/77/185 39/78/186
f 37/64/187 41/65/188 40/77/189
f 37/64/190 42/66/191 41/65/192
f 37/64/193 38/67/194 42/66/195
f 38/67/196 39/68/197 44/69/198
f 39/68/199 40/31/200 45/33/201
f 40/31/202 41/76/203 46/32/204
f 41/65/205 42/66/206 47/35/207
f 42/66/208 38/67/209 43/75/210
f 38/67/211 44/69/212 43/75/213
f 39/68/214 45/33/215 44/69/216
f 40/31/217 46/32/218 45/33/219
f 41/76/220 47/35/221 46/32/222
f 42/66/223 43/75/224 47/35/225
f 43/75/226 44/69/227 48/34/228
f 44/69/229 45/33/230 48/34/231
f 45/33/232 46/32/233 48/34/234
f 46/32/235 47/35/236 48/34/237
f 47/35/238 43/75/239 48/34/240
f 49/45/241 51/44/242 50/36/243
f 49/45/244 52/39/245 51/44/246
f 49/45/247 53/42/248 52/39/249
f 49/45/250 54/70/251 53/42/252
f 49/45/253 50/36/254 54/70/255
f 50/36/256 51/44/257 56/37/258
f 51/44/259 52/39/260 57/41/261
f 52/39/262 53/42/263 58/40/264
f 53/42/265 54/70/266 59/79/267
f 54/70/268 50/36/269 55/38/270
f 50/36/271 56/37/272 55/38/273
f 51/44/274 57/41/275 56/37/276
f 52/39/277 58/40/278 57/41/279
f 53/42/280 59/79/281 58/40/282
f 54/70/283 55/72/284 59/79/285
f 55/38/286 56/37/287 60/74/288
f 56/37/289 57/41/290 60/74/291
f 57/41/292 58/40/293 60/74/294
f 58/40/295 59/79/296 60/43/297
f 59/71/298 55/38/299 60/74/300
f 61/46/301 63/86/302 62/47/303
f 61/46/304 64/53/305 63/57/306
f 61/46/307 65/56/308 64/53/309
f 61/46/310 66/48/311 65/56/312
f 61/46/313 62/47/314 66/48/315
f 62/47/316 63/86/317 68/85/318
f 63/57/319 64/53/320 69/55/321
f 64/53/322 65/56/323 70/54/324
f 65/56/325 66/48/326 71/51/327
f 66/48/328 62/47/329 67/49/330
f 62/47/331 68/85/332 67/49/333
f 63/57/334 69/55/335 68/50/336
f 64/53/337 70/54/338 69/55/339
f 65/56/340 71/51/341 70/54/342
f 66/48/343 67/49/344 71/51/345
f 67/49/346 68/85/347 72/84/348
f 68/50/349 69/55/350 72/52/351
f 69/55/352 70/54/353 72/52/354
f 70/54/355 71/51/356 72/52/357
f 71/51/358 67/49/359 72/84/360
